User Type,Username,Date,Text
,eeasee,2007-08-04T19:39Z,"FILE ""morituri saltant vol1 beta1.mp3"" MP3
TRACK 01 AUDIO
INDEX 01 00:00:00
TRACK 02 AUDIO
INDEX 01 01:29:00
TRACK 03 AUDIO
INDEX 01 05:23:00
TRACK 04 AUDIO
INDEX 01 11:59:00
TRACK 05 AUDIO
INDEX 01 15:07:00
TRACK 06 AUDIO
INDEX 01 21:16:00
TRACK 07 AUDIO
INDEX 01 26:14:00
TRACK 08 AUDIO
INDEX 01 32:32:00
TRACK 09 AUDIO
INDEX 01 37:18:00
TRACK 10 AUDIO
INDEX 01 40:59:00
TRACK 11 AUDIO
INDEX 01 45:50:00
TRACK 12 AUDIO
INDEX 01 51:28:00
TRACK 13 AUDIO
INDEX 01 58:50:00 
TRACK 14 AUDIO
INDEX 01 66:26:00 
TRACK 15 AUDIO
INDEX 01 71:20:00"
,phoenixPhyre,2007-11-27T00:24Z,Seed please =)
,eeasee,2007-11-28T17:25Z,"I lost the mp3's in a HD crash
I'll make new ones from from the 'master'-CD and reupload them when I upload me next mix"
